<?xml version="1.0" encoding="UTF-8" standalone="no"?>
<!DOCTYPE svg PUBLIC "-//W3C//DTD SVG 1.1//EN"
 "http://www.w3.org/Graphics/SVG/1.1/DTD/svg11.dtd">
<!-- Generated by graphviz version 2.43.0 (0)
 -->
<!-- Title: grammar.y Pages: 1 -->
<svg width="2342pt" height="660pt"
 viewBox="0.00 0.00 2341.83 660.00" xmlns="http://www.w3.org/2000/svg" xmlns:xlink="http://www.w3.org/1999/xlink">
<g id="graph0" class="graph" transform="scale(1 1) rotate(0) translate(4 656)">
<title>grammar.y</title>
<polygon fill="white" stroke="transparent" points="-4,4 -4,-656 2337.83,-656 2337.83,4 -4,4"/>
<!-- 0 -->
<g id="node1" class="node">
<title>0</title>
<polygon fill="none" stroke="black" points="1764,-652 1533,-652 1533,-598 1764,-598 1764,-652"/>
<text text-anchor="middle" x="1648.5" y="-636.8" font-family="Courier,monospace" font-size="14.00">State 0</text>
<text text-anchor="start" x="1541" y="-605.8" font-family="Courier,monospace" font-size="14.00"> &#160;0 $accept: . start_ $end</text>
</g>
<!-- 1 -->
<g id="node2" class="node">
<title>1</title>
<polygon fill="none" stroke="black" points="1082,-442 851,-442 851,-388 1082,-388 1082,-442"/>
<text text-anchor="middle" x="966.5" y="-426.8" font-family="Courier,monospace" font-size="14.00">State 1</text>
<text text-anchor="start" x="859" y="-395.8" font-family="Courier,monospace" font-size="14.00"> &#160;4 statement: T_NEWLINE .</text>
</g>
<!-- 0&#45;&gt;1 -->
<g id="edge1" class="edge">
<title>0&#45;&gt;1</title>
<path fill="none" stroke="black" d="M1532.92,-617.24C1392.1,-607.43 1163.68,-586.02 1088.5,-547 1045.64,-524.75 1009.86,-481.25 988.36,-450.49"/>
<polygon fill="black" stroke="black" points="991.21,-448.46 982.68,-442.18 985.43,-452.41 991.21,-448.46"/>
<text text-anchor="middle" x="1126" y="-516.3" font-family="Courier,monospace" font-size="14.00">T_NEWLINE</text>
</g>
<!-- 2 -->
<g id="node3" class="node">
<title>2</title>
<polygon fill="none" stroke="black" points="832.5,-442 428.5,-442 428.5,-388 832.5,-388 832.5,-442"/>
<text text-anchor="middle" x="630.5" y="-426.8" font-family="Courier,monospace" font-size="14.00">State 2</text>
<text text-anchor="start" x="436.5" y="-395.8" font-family="Courier,monospace" font-size="14.00"> &#160;7 comentario: T_MLC_START . comm_ml T_MLC_END</text>
</g>
<!-- 0&#45;&gt;2 -->
<g id="edge2" class="edge">
<title>0&#45;&gt;2</title>
<path fill="none" stroke="black" d="M1532.75,-624.12C1388.61,-621.44 1136.15,-607.41 929.5,-547 842.5,-521.57 747.49,-476.78 688.45,-446.75"/>
<polygon fill="black" stroke="black" points="689.79,-443.5 679.29,-442.06 686.6,-449.73 689.79,-443.5"/>
<text text-anchor="middle" x="975" y="-516.3" font-family="Courier,monospace" font-size="14.00">T_MLC_START</text>
</g>
<!-- 3 -->
<g id="node4" class="node">
<title>3</title>
<polygon fill="none" stroke="black" points="1684.5,-442 1478.5,-442 1478.5,-388 1684.5,-388 1684.5,-442"/>
<text text-anchor="middle" x="1581.5" y="-426.8" font-family="Courier,monospace" font-size="14.00">State 3</text>
<text text-anchor="start" x="1486.5" y="-395.8" font-family="Courier,monospace" font-size="14.00"> &#160;6 comentario: T_SLC .</text>
</g>
<!-- 0&#45;&gt;3 -->
<g id="edge3" class="edge">
<title>0&#45;&gt;3</title>
<path fill="none" stroke="black" d="M1638.95,-597.79C1628.29,-568.16 1610.8,-518.4 1597.5,-475 1595.23,-467.59 1592.95,-459.61 1590.86,-451.99"/>
<polygon fill="black" stroke="black" points="1594.21,-450.98 1588.23,-442.24 1587.46,-452.81 1594.21,-450.98"/>
<text text-anchor="middle" x="1642.5" y="-516.3" font-family="Courier,monospace" font-size="14.00">T_SLC</text>
</g>
<!-- 4 -->
<g id="node5" class="node">
<title>4</title>
<polygon fill="none" stroke="black" points="2047,-547 1816,-547 1816,-493 2047,-493 2047,-547"/>
<text text-anchor="middle" x="1931.5" y="-531.8" font-family="Courier,monospace" font-size="14.00">State 4</text>
<text text-anchor="start" x="1824" y="-500.8" font-family="Courier,monospace" font-size="14.00"> &#160;0 $accept: start_ . $end</text>
</g>
<!-- 0&#45;&gt;4 -->
<g id="edge4" class="edge">
<title>0&#45;&gt;4</title>
<path fill="none" stroke="black" stroke-dasharray="5,2" d="M1720.28,-597.88C1759.93,-583.44 1809.32,-565.47 1850.37,-550.53"/>
<polygon fill="black" stroke="black" points="1851.6,-553.81 1859.8,-547.1 1849.2,-547.23 1851.6,-553.81"/>
<text text-anchor="middle" x="1832.5" y="-568.8" font-family="Courier,monospace" font-size="14.00">start_</text>
</g>
<!-- 5 -->
<g id="node6" class="node">
<title>5</title>
<polygon fill="none" stroke="black" points="2255.5,-547 2065.5,-547 2065.5,-493 2255.5,-493 2255.5,-547"/>
<text text-anchor="middle" x="2160.5" y="-531.8" font-family="Courier,monospace" font-size="14.00">State 5</text>
<text text-anchor="start" x="2073.5" y="-500.8" font-family="Courier,monospace" font-size="14.00"> &#160;1 start_: start_2 .</text>
</g>
<!-- 0&#45;&gt;5 -->
<g id="edge5" class="edge">
<title>0&#45;&gt;5</title>
<path fill="none" stroke="black" stroke-dasharray="5,2" d="M1764.19,-603.88C1845.84,-589.26 1957.66,-568.35 2055.5,-547 2055.6,-546.98 2055.7,-546.96 2055.8,-546.93"/>
<polygon fill="black" stroke="black" points="2056.26,-550.42 2065.27,-544.83 2054.74,-543.58 2056.26,-550.42"/>
<text text-anchor="middle" x="1996.5" y="-568.8" font-family="Courier,monospace" font-size="14.00">start_2</text>
</g>
<!-- 6 -->
<g id="node7" class="node">
<title>6</title>
<polygon fill="none" stroke="black" points="1454,-547 1173,-547 1173,-493 1454,-493 1454,-547"/>
<text text-anchor="middle" x="1313.5" y="-531.8" font-family="Courier,monospace" font-size="14.00">State 6</text>
<text text-anchor="start" x="1181" y="-500.8" font-family="Courier,monospace" font-size="14.00"> &#160;2 start_2: statement . start_2</text>
</g>
<!-- 0&#45;&gt;6 -->
<g id="edge6" class="edge">
<title>0&#45;&gt;6</title>
<path fill="none" stroke="black" stroke-dasharray="5,2" d="M1555.09,-597.91C1535.06,-592.15 1514.04,-585.98 1494.5,-580 1463.97,-570.67 1430.72,-559.98 1401.14,-550.29"/>
<polygon fill="black" stroke="black" points="1401.85,-546.84 1391.26,-547.04 1399.66,-553.49 1401.85,-546.84"/>
<text text-anchor="middle" x="1532" y="-568.8" font-family="Courier,monospace" font-size="14.00">statement</text>
</g>
<!-- 7 -->
<g id="node8" class="node">
<title>7</title>
<polygon fill="none" stroke="black" points="1942,-442 1703,-442 1703,-388 1942,-388 1942,-442"/>
<text text-anchor="middle" x="1822.5" y="-426.8" font-family="Courier,monospace" font-size="14.00">State 7</text>
<text text-anchor="start" x="1711" y="-395.8" font-family="Courier,monospace" font-size="14.00"> &#160;5 statement: comentario .</text>
</g>
<!-- 0&#45;&gt;7 -->
<g id="edge7" class="edge">
<title>0&#45;&gt;7</title>
<path fill="none" stroke="black" stroke-dasharray="5,2" d="M1659.68,-597.98C1672.47,-570.09 1695.33,-525.46 1723.5,-493 1737.97,-476.33 1756.52,-460.78 1773.63,-448.08"/>
<polygon fill="black" stroke="black" points="1775.86,-450.79 1781.89,-442.09 1771.74,-445.13 1775.86,-450.79"/>
<text text-anchor="middle" x="1765" y="-516.3" font-family="Courier,monospace" font-size="14.00">comentario</text>
</g>
<!-- 0R3 -->
<g id="node9" class="node">
<title>0R3</title>
<polygon fill="#b2df8a" stroke="black" points="2303.5,-538 2273.33,-520 2303.5,-502 2333.67,-520 2303.5,-538"/>
<text text-anchor="middle" x="2303.5" y="-516.3" font-family="Courier,monospace" font-size="14.00">R3</text>
</g>
<!-- 0&#45;&gt;0R3 -->
<g id="edge8" class="edge">
<title>0&#45;&gt;0R3</title>
<path fill="none" stroke="black" d="M1764.11,-616.13C1916.48,-604.62 2175.61,-580.84 2264.5,-547 2270.99,-544.53 2277.48,-540.82 2283.26,-536.97"/>
<polygon fill="black" stroke="black" points="2285.55,-539.63 2291.64,-530.96 2281.48,-533.94 2285.55,-539.63"/>
</g>
<!-- 1R4 -->
<g id="node10" class="node">
<title>1R4</title>
<polygon fill="#b2df8a" stroke="black" points="1191.5,-328 1161.33,-310 1191.5,-292 1221.67,-310 1191.5,-328"/>
<text text-anchor="middle" x="1191.5" y="-306.3" font-family="Courier,monospace" font-size="14.00">R4</text>
</g>
<!-- 1&#45;&gt;1R4 -->
<g id="edge9" class="edge">
<title>1&#45;&gt;1R4</title>
<path fill="none" stroke="black" d="M1038.66,-387.93C1073.76,-374.29 1116.12,-356.42 1152.5,-337 1158.44,-333.83 1164.61,-330 1170.24,-326.26"/>
<polygon fill="black" stroke="black" points="1172.27,-329.11 1178.54,-320.57 1168.31,-323.34 1172.27,-329.11"/>
</g>
<!-- 8 -->
<g id="node11" class="node">
<title>8</title>
<polygon fill="none" stroke="black" points="501,-337 220,-337 220,-283 501,-283 501,-337"/>
<text text-anchor="middle" x="360.5" y="-321.8" font-family="Courier,monospace" font-size="14.00">State 8</text>
<text text-anchor="start" x="228" y="-290.8" font-family="Courier,monospace" font-size="14.00"> &#160;9 comm_ml: T_NEWLINE . comm_ml</text>
</g>
<!-- 2&#45;&gt;8 -->
<g id="edge10" class="edge">
<title>2&#45;&gt;8</title>
<path fill="none" stroke="black" d="M562.02,-387.88C524.43,-373.54 477.66,-355.7 438.65,-340.81"/>
<polygon fill="black" stroke="black" points="439.5,-337.39 428.91,-337.1 437,-343.93 439.5,-337.39"/>
<text text-anchor="middle" x="550" y="-358.8" font-family="Courier,monospace" font-size="14.00">T_NEWLINE</text>
</g>
<!-- 9 -->
<g id="node12" class="node">
<title>9</title>
<polygon fill="none" stroke="black" points="689,-232 392,-232 392,-178 689,-178 689,-232"/>
<text text-anchor="middle" x="540.5" y="-216.8" font-family="Courier,monospace" font-size="14.00">State 9</text>
<text text-anchor="start" x="400" y="-185.8" font-family="Courier,monospace" font-size="14.00"> &#160;8 comm_ml: T_COMMENT_C . comm_ml</text>
</g>
<!-- 2&#45;&gt;9 -->
<g id="edge11" class="edge">
<title>2&#45;&gt;9</title>
<path fill="none" stroke="black" d="M627.53,-387.9C623.87,-360.91 616.35,-317.91 602.5,-283 596.18,-267.06 592.93,-263.62 582.5,-250 579.9,-246.6 577.07,-243.18 574.15,-239.83"/>
<polygon fill="black" stroke="black" points="576.53,-237.24 567.24,-232.16 571.34,-241.93 576.53,-237.24"/>
<text text-anchor="middle" x="664" y="-306.3" font-family="Courier,monospace" font-size="14.00">T_COMMENT_C</text>
</g>
<!-- 10 -->
<g id="node13" class="node">
<title>10</title>
<polygon fill="none" stroke="black" points="1143.5,-337 739.5,-337 739.5,-283 1143.5,-283 1143.5,-337"/>
<text text-anchor="middle" x="941.5" y="-321.8" font-family="Courier,monospace" font-size="14.00">State 10</text>
<text text-anchor="start" x="747.5" y="-290.8" font-family="Courier,monospace" font-size="14.00"> &#160;7 comentario: T_MLC_START comm_ml . T_MLC_END</text>
</g>
<!-- 2&#45;&gt;10 -->
<g id="edge12" class="edge">
<title>2&#45;&gt;10</title>
<path fill="none" stroke="black" stroke-dasharray="5,2" d="M709.38,-387.88C753.31,-373.33 808.13,-355.17 853.45,-340.16"/>
<polygon fill="black" stroke="black" points="854.58,-343.47 862.97,-337.01 852.38,-336.83 854.58,-343.47"/>
<text text-anchor="middle" x="834.5" y="-358.8" font-family="Courier,monospace" font-size="14.00">comm_ml</text>
</g>
<!-- 2R10 -->
<g id="node14" class="node">
<title>2R10</title>
<polygon fill="#b2df8a" stroke="black" points="164.5,-328 126.63,-310 164.5,-292 202.37,-310 164.5,-328"/>
<text text-anchor="middle" x="164.5" y="-306.3" font-family="Courier,monospace" font-size="14.00">R10</text>
</g>
<!-- 2&#45;&gt;2R10 -->
<g id="edge13" class="edge">
<title>2&#45;&gt;2R10</title>
<path fill="none" stroke="black" d="M428.47,-390.91C358.14,-379.25 279.58,-362.05 210.5,-337 203.03,-334.29 195.35,-330.44 188.45,-326.53"/>
<polygon fill="black" stroke="black" points="190.01,-323.38 179.63,-321.26 186.42,-329.39 190.01,-323.38"/>
</g>
<!-- 3R6 -->
<g id="node15" class="node">
<title>3R6</title>
<polygon fill="#b2df8a" stroke="black" points="1581.5,-328 1551.33,-310 1581.5,-292 1611.67,-310 1581.5,-328"/>
<text text-anchor="middle" x="1581.5" y="-306.3" font-family="Courier,monospace" font-size="14.00">R6</text>
</g>
<!-- 3&#45;&gt;3R6 -->
<g id="edge14" class="edge">
<title>3&#45;&gt;3R6</title>
<path fill="none" stroke="black" d="M1581.5,-387.74C1581.5,-372.68 1581.5,-353.8 1581.5,-338.53"/>
<polygon fill="black" stroke="black" points="1585,-338.16 1581.5,-328.16 1578,-338.16 1585,-338.16"/>
</g>
<!-- 11 -->
<g id="node16" class="node">
<title>11</title>
<polygon fill="none" stroke="black" points="2191,-442 1960,-442 1960,-388 2191,-388 2191,-442"/>
<text text-anchor="middle" x="2075.5" y="-426.8" font-family="Courier,monospace" font-size="14.00">State 11</text>
<text text-anchor="start" x="1968" y="-395.8" font-family="Courier,monospace" font-size="14.00"> &#160;0 $accept: start_ $end .</text>
</g>
<!-- 4&#45;&gt;11 -->
<g id="edge15" class="edge">
<title>4&#45;&gt;11</title>
<path fill="none" stroke="black" d="M1968.21,-492.74C1987.17,-479.18 2010.46,-462.52 2030.49,-448.19"/>
<polygon fill="black" stroke="black" points="2032.76,-450.87 2038.86,-442.21 2028.69,-445.18 2032.76,-450.87"/>
<text text-anchor="middle" x="2029.5" y="-463.8" font-family="Courier,monospace" font-size="14.00">$end</text>
</g>
<!-- 5R1 -->
<g id="node17" class="node">
<title>5R1</title>
<polygon fill="#b2df8a" stroke="black" points="2239.5,-433 2209.33,-415 2239.5,-397 2269.67,-415 2239.5,-433"/>
<text text-anchor="middle" x="2239.5" y="-411.3" font-family="Courier,monospace" font-size="14.00">R1</text>
</g>
<!-- 5&#45;&gt;5R1 -->
<g id="edge16" class="edge">
<title>5&#45;&gt;5R1</title>
<path fill="none" stroke="black" d="M2180.64,-492.74C2194.14,-475.14 2211.65,-452.31 2224.05,-436.14"/>
<polygon fill="black" stroke="black" points="2227.05,-437.99 2230.36,-427.92 2221.49,-433.73 2227.05,-437.99"/>
</g>
<!-- 6&#45;&gt;1 -->
<g id="edge17" class="edge">
<title>6&#45;&gt;1</title>
<path fill="none" stroke="black" d="M1192.3,-493C1169.96,-487.53 1146.92,-481.45 1125.5,-475 1097.5,-466.57 1067.3,-455.8 1040.82,-445.77"/>
<polygon fill="black" stroke="black" points="1041.83,-442.41 1031.24,-442.12 1039.34,-448.96 1041.83,-442.41"/>
<text text-anchor="middle" x="1163" y="-463.8" font-family="Courier,monospace" font-size="14.00">T_NEWLINE</text>
</g>
<!-- 6&#45;&gt;2 -->
<g id="edge18" class="edge">
<title>6&#45;&gt;2</title>
<path fill="none" stroke="black" d="M1172.93,-501.04C1115.12,-493.41 1047.54,-484.16 986.5,-475 922.68,-465.42 852.57,-454 791.58,-443.76"/>
<polygon fill="black" stroke="black" points="791.92,-440.27 781.48,-442.07 790.76,-447.18 791.92,-440.27"/>
<text text-anchor="middle" x="1032" y="-463.8" font-family="Courier,monospace" font-size="14.00">T_MLC_START</text>
</g>
<!-- 6&#45;&gt;3 -->
<g id="edge19" class="edge">
<title>6&#45;&gt;3</title>
<path fill="none" stroke="black" d="M1381.47,-492.88C1418.79,-478.54 1465.2,-460.7 1503.93,-445.81"/>
<polygon fill="black" stroke="black" points="1505.52,-448.95 1513.6,-442.1 1503.01,-442.42 1505.52,-448.95"/>
<text text-anchor="middle" x="1485.5" y="-463.8" font-family="Courier,monospace" font-size="14.00">T_SLC</text>
</g>
<!-- 6&#45;&gt;6 -->
<g id="edge21" class="edge">
<title>6&#45;&gt;6</title>
<path fill="none" stroke="black" stroke-dasharray="5,2" d="M1454.16,-527.39C1465.19,-525.76 1472,-523.3 1472,-520 1472,-517.89 1469.2,-516.11 1464.29,-514.69"/>
<polygon fill="black" stroke="black" points="1464.66,-511.19 1454.16,-512.61 1463.25,-518.05 1464.66,-511.19"/>
<text text-anchor="middle" x="1509.5" y="-516.3" font-family="Courier,monospace" font-size="14.00">statement</text>
</g>
<!-- 6&#45;&gt;7 -->
<g id="edge22" class="edge">
<title>6&#45;&gt;7</title>
<path fill="none" stroke="black" stroke-dasharray="5,2" d="M1442.27,-492.94C1518.94,-477.43 1615.93,-457.8 1692.77,-442.25"/>
<polygon fill="black" stroke="black" points="1693.88,-445.6 1702.99,-440.18 1692.5,-438.74 1693.88,-445.6"/>
<text text-anchor="middle" x="1640" y="-463.8" font-family="Courier,monospace" font-size="14.00">comentario</text>
</g>
<!-- 12 -->
<g id="node18" class="node">
<title>12</title>
<polygon fill="none" stroke="black" points="1460,-442 1179,-442 1179,-388 1460,-388 1460,-442"/>
<text text-anchor="middle" x="1319.5" y="-426.8" font-family="Courier,monospace" font-size="14.00">State 12</text>
<text text-anchor="start" x="1187" y="-395.8" font-family="Courier,monospace" font-size="14.00"> &#160;2 start_2: statement start_2 .</text>
</g>
<!-- 6&#45;&gt;12 -->
<g id="edge20" class="edge">
<title>6&#45;&gt;12</title>
<path fill="none" stroke="black" stroke-dasharray="5,2" d="M1315.03,-492.74C1315.74,-480.51 1316.6,-465.76 1317.38,-452.48"/>
<polygon fill="black" stroke="black" points="1320.89,-452.4 1317.97,-442.21 1313.9,-451.99 1320.89,-452.4"/>
<text text-anchor="middle" x="1346.5" y="-463.8" font-family="Courier,monospace" font-size="14.00">start_2</text>
</g>
<!-- 6R3 -->
<g id="node19" class="node">
<title>6R3</title>
<polygon fill="#b2df8a" stroke="black" points="1130.5,-433 1100.33,-415 1130.5,-397 1160.67,-415 1130.5,-433"/>
<text text-anchor="middle" x="1130.5" y="-411.3" font-family="Courier,monospace" font-size="14.00">R3</text>
</g>
<!-- 6&#45;&gt;6R3 -->
<g id="edge23" class="edge">
<title>6&#45;&gt;6R3</title>
<path fill="none" stroke="black" d="M1261.85,-492.93C1234.11,-478.54 1199.54,-459.99 1169.5,-442 1163.73,-438.54 1157.61,-434.61 1151.98,-430.86"/>
<polygon fill="black" stroke="black" points="1153.9,-427.93 1143.65,-425.23 1149.98,-433.73 1153.9,-427.93"/>
</g>
<!-- 7R5 -->
<g id="node20" class="node">
<title>7R5</title>
<polygon fill="#b2df8a" stroke="black" points="1822.5,-328 1792.33,-310 1822.5,-292 1852.67,-310 1822.5,-328"/>
<text text-anchor="middle" x="1822.5" y="-306.3" font-family="Courier,monospace" font-size="14.00">R5</text>
</g>
<!-- 7&#45;&gt;7R5 -->
<g id="edge24" class="edge">
<title>7&#45;&gt;7R5</title>
<path fill="none" stroke="black" d="M1822.5,-387.74C1822.5,-372.68 1822.5,-353.8 1822.5,-338.53"/>
<polygon fill="black" stroke="black" points="1826,-338.16 1822.5,-328.16 1819,-338.16 1826,-338.16"/>
</g>
<!-- 8&#45;&gt;8 -->
<g id="edge25" class="edge">
<title>8&#45;&gt;8</title>
<path fill="none" stroke="black" d="M501.16,-317.39C512.19,-315.76 519,-313.3 519,-310 519,-307.89 516.2,-306.11 511.29,-304.69"/>
<polygon fill="black" stroke="black" points="511.66,-301.19 501.16,-302.61 510.25,-308.05 511.66,-301.19"/>
<text text-anchor="middle" x="556.5" y="-306.3" font-family="Courier,monospace" font-size="14.00">T_NEWLINE</text>
</g>
<!-- 8&#45;&gt;9 -->
<g id="edge26" class="edge">
<title>8&#45;&gt;9</title>
<path fill="none" stroke="black" d="M429.16,-282.95C441.2,-277.54 453.42,-271.49 464.5,-265 477.61,-257.31 491.01,-247.64 502.83,-238.36"/>
<polygon fill="black" stroke="black" points="505.11,-241.01 510.73,-232.02 500.74,-235.54 505.11,-241.01"/>
<text text-anchor="middle" x="533" y="-253.8" font-family="Courier,monospace" font-size="14.00">T_COMMENT_C</text>
</g>
<!-- 13 -->
<g id="node21" class="node">
<title>13</title>
<polygon fill="none" stroke="black" points="281,-232 0,-232 0,-178 281,-178 281,-232"/>
<text text-anchor="middle" x="140.5" y="-216.8" font-family="Courier,monospace" font-size="14.00">State 13</text>
<text text-anchor="start" x="8" y="-185.8" font-family="Courier,monospace" font-size="14.00"> &#160;9 comm_ml: T_NEWLINE comm_ml .</text>
</g>
<!-- 8&#45;&gt;13 -->
<g id="edge27" class="edge">
<title>8&#45;&gt;13</title>
<path fill="none" stroke="black" stroke-dasharray="5,2" d="M304.7,-282.88C274.46,-268.72 236.93,-251.15 205.39,-236.38"/>
<polygon fill="black" stroke="black" points="206.78,-233.17 196.24,-232.1 203.81,-239.51 206.78,-233.17"/>
<text text-anchor="middle" x="293.5" y="-253.8" font-family="Courier,monospace" font-size="14.00">comm_ml</text>
</g>
<!-- 8R10 -->
<g id="node22" class="node">
<title>8R10</title>
<polygon fill="#b2df8a" stroke="black" points="336.5,-223 298.63,-205 336.5,-187 374.37,-205 336.5,-223"/>
<text text-anchor="middle" x="336.5" y="-201.3" font-family="Courier,monospace" font-size="14.00">R10</text>
</g>
<!-- 8&#45;&gt;8R10 -->
<g id="edge28" class="edge">
<title>8&#45;&gt;8R10</title>
<path fill="none" stroke="black" d="M354.38,-282.74C350.7,-266.96 346.04,-246.96 342.41,-231.34"/>
<polygon fill="black" stroke="black" points="345.75,-230.28 340.07,-221.33 338.93,-231.87 345.75,-230.28"/>
</g>
<!-- 9&#45;&gt;8 -->
<g id="edge29" class="edge">
<title>9&#45;&gt;8</title>
<path fill="none" stroke="black" d="M412.07,-232.07C402.49,-237.05 393.47,-242.96 385.5,-250 378.53,-256.15 373.45,-264.57 369.76,-273.13"/>
<polygon fill="black" stroke="black" points="366.4,-272.13 366.17,-282.73 372.95,-274.59 366.4,-272.13"/>
<text text-anchor="middle" x="423" y="-253.8" font-family="Courier,monospace" font-size="14.00">T_NEWLINE</text>
</g>
<!-- 9&#45;&gt;9 -->
<g id="edge30" class="edge">
<title>9&#45;&gt;9</title>
<path fill="none" stroke="black" d="M689.05,-212.27C700.17,-210.65 707,-208.22 707,-205 707,-202.88 704.06,-201.11 698.89,-199.68"/>
<polygon fill="black" stroke="black" points="699.54,-196.25 689.05,-197.73 698.18,-203.11 699.54,-196.25"/>
<text text-anchor="middle" x="752.5" y="-201.3" font-family="Courier,monospace" font-size="14.00">T_COMMENT_C</text>
</g>
<!-- 14 -->
<g id="node23" class="node">
<title>14</title>
<polygon fill="none" stroke="black" points="537,-127 240,-127 240,-73 537,-73 537,-127"/>
<text text-anchor="middle" x="388.5" y="-111.8" font-family="Courier,monospace" font-size="14.00">State 14</text>
<text text-anchor="start" x="248" y="-80.8" font-family="Courier,monospace" font-size="14.00"> &#160;8 comm_ml: T_COMMENT_C comm_ml .</text>
</g>
<!-- 9&#45;&gt;14 -->
<g id="edge31" class="edge">
<title>9&#45;&gt;14</title>
<path fill="none" stroke="black" stroke-dasharray="5,2" d="M501.75,-177.74C481.48,-164.01 456.52,-147.09 435.2,-132.64"/>
<polygon fill="black" stroke="black" points="437.16,-129.74 426.92,-127.03 433.23,-135.54 437.16,-129.74"/>
<text text-anchor="middle" x="503.5" y="-148.8" font-family="Courier,monospace" font-size="14.00">comm_ml</text>
</g>
<!-- 9R10 -->
<g id="node24" class="node">
<title>9R10</title>
<polygon fill="#b2df8a" stroke="black" points="592.5,-118 554.63,-100 592.5,-82 630.37,-100 592.5,-118"/>
<text text-anchor="middle" x="592.5" y="-96.3" font-family="Courier,monospace" font-size="14.00">R10</text>
</g>
<!-- 9&#45;&gt;9R10 -->
<g id="edge32" class="edge">
<title>9&#45;&gt;9R10</title>
<path fill="none" stroke="black" d="M553.76,-177.74C562.13,-161.16 572.84,-139.93 580.88,-124.01"/>
<polygon fill="black" stroke="black" points="584.11,-125.38 585.5,-114.87 577.87,-122.22 584.11,-125.38"/>
</g>
<!-- 15 -->
<g id="node25" class="node">
<title>15</title>
<polygon fill="none" stroke="black" points="1220.5,-232 816.5,-232 816.5,-178 1220.5,-178 1220.5,-232"/>
<text text-anchor="middle" x="1018.5" y="-216.8" font-family="Courier,monospace" font-size="14.00">State 15</text>
<text text-anchor="start" x="824.5" y="-185.8" font-family="Courier,monospace" font-size="14.00"> &#160;7 comentario: T_MLC_START comm_ml T_MLC_END .</text>
</g>
<!-- 10&#45;&gt;15 -->
<g id="edge33" class="edge">
<title>10&#45;&gt;15</title>
<path fill="none" stroke="black" d="M961.13,-282.74C970.72,-269.91 982.39,-254.3 992.7,-240.51"/>
<polygon fill="black" stroke="black" points="995.72,-242.31 998.91,-232.21 990.12,-238.12 995.72,-242.31"/>
<text text-anchor="middle" x="1023" y="-253.8" font-family="Courier,monospace" font-size="14.00">T_MLC_END</text>
</g>
<!-- 11R0 -->
<g id="node26" class="node">
<title>11R0</title>
<polygon fill="#a6cee3" stroke="black" points="2075.5,-328 2037.63,-310 2075.5,-292 2113.37,-310 2075.5,-328"/>
<text text-anchor="middle" x="2075.5" y="-306.3" font-family="Courier,monospace" font-size="14.00">Acc</text>
</g>
<!-- 11&#45;&gt;11R0 -->
<g id="edge34" class="edge">
<title>11&#45;&gt;11R0</title>
<path fill="none" stroke="black" d="M2075.5,-387.74C2075.5,-372.68 2075.5,-353.8 2075.5,-338.53"/>
<polygon fill="black" stroke="black" points="2079,-338.16 2075.5,-328.16 2072,-338.16 2079,-338.16"/>
</g>
<!-- 12R2 -->
<g id="node27" class="node">
<title>12R2</title>
<polygon fill="#b2df8a" stroke="black" points="1319.5,-328 1289.33,-310 1319.5,-292 1349.67,-310 1319.5,-328"/>
<text text-anchor="middle" x="1319.5" y="-306.3" font-family="Courier,monospace" font-size="14.00">R2</text>
</g>
<!-- 12&#45;&gt;12R2 -->
<g id="edge35" class="edge">
<title>12&#45;&gt;12R2</title>
<path fill="none" stroke="black" d="M1319.5,-387.74C1319.5,-372.68 1319.5,-353.8 1319.5,-338.53"/>
<polygon fill="black" stroke="black" points="1323,-338.16 1319.5,-328.16 1316,-338.16 1323,-338.16"/>
</g>
<!-- 13R9 -->
<g id="node28" class="node">
<title>13R9</title>
<polygon fill="#b2df8a" stroke="black" points="140.5,-118 110.33,-100 140.5,-82 170.67,-100 140.5,-118"/>
<text text-anchor="middle" x="140.5" y="-96.3" font-family="Courier,monospace" font-size="14.00">R9</text>
</g>
<!-- 13&#45;&gt;13R9 -->
<g id="edge36" class="edge">
<title>13&#45;&gt;13R9</title>
<path fill="none" stroke="black" d="M140.5,-177.74C140.5,-162.68 140.5,-143.8 140.5,-128.53"/>
<polygon fill="black" stroke="black" points="144,-128.16 140.5,-118.16 137,-128.16 144,-128.16"/>
</g>
<!-- 14R8 -->
<g id="node29" class="node">
<title>14R8</title>
<polygon fill="#b2df8a" stroke="black" points="388.5,-36 358.33,-18 388.5,0 418.67,-18 388.5,-36"/>
<text text-anchor="middle" x="388.5" y="-14.3" font-family="Courier,monospace" font-size="14.00">R8</text>
</g>
<!-- 14&#45;&gt;14R8 -->
<g id="edge37" class="edge">
<title>14&#45;&gt;14R8</title>
<path fill="none" stroke="black" d="M388.5,-72.81C388.5,-64.35 388.5,-54.95 388.5,-46.4"/>
<polygon fill="black" stroke="black" points="392,-46.17 388.5,-36.17 385,-46.17 392,-46.17"/>
</g>
<!-- 15R7 -->
<g id="node30" class="node">
<title>15R7</title>
<polygon fill="#b2df8a" stroke="black" points="1018.5,-118 988.33,-100 1018.5,-82 1048.67,-100 1018.5,-118"/>
<text text-anchor="middle" x="1018.5" y="-96.3" font-family="Courier,monospace" font-size="14.00">R7</text>
</g>
<!-- 15&#45;&gt;15R7 -->
<g id="edge38" class="edge">
<title>15&#45;&gt;15R7</title>
<path fill="none" stroke="black" d="M1018.5,-177.74C1018.5,-162.68 1018.5,-143.8 1018.5,-128.53"/>
<polygon fill="black" stroke="black" points="1022,-128.16 1018.5,-118.16 1015,-128.16 1022,-128.16"/>
</g>
</g>
</svg>
