<?xml version="1.0" encoding="UTF-8" standalone="no"?>
<!DOCTYPE svg PUBLIC "-//W3C//DTD SVG 1.1//EN"
 "http://www.w3.org/Graphics/SVG/1.1/DTD/svg11.dtd">
<!-- Generated by graphviz version 2.43.0 (0)
 -->
<!-- Title: grammar.y Pages: 1 -->
<svg width="2585pt" height="765pt"
 viewBox="0.00 0.00 2584.83 765.00" xmlns="http://www.w3.org/2000/svg" xmlns:xlink="http://www.w3.org/1999/xlink">
<g id="page0,1_graph0" class="graph" transform="scale(1 1) rotate(0) translate(4 761)">
<title>grammar.y</title>
<polygon fill="white" stroke="transparent" points="-4,4 -4,-761 2580.83,-761 2580.83,4 -4,4"/>
<!-- 0 -->
<g id="node1" class="node">
<title>0</title>
<polygon fill="none" stroke="black" points="1449,-757 1218,-757 1218,-703 1449,-703 1449,-757"/>
<text text-anchor="middle" x="1333.5" y="-741.8" font-family="Courier,monospace" font-size="14.00">State 0</text>
<text text-anchor="start" x="1226" y="-710.8" font-family="Courier,monospace" font-size="14.00"> &#160;0 $accept: . start_ $end</text>
</g>
<!-- 1 -->
<g id="node2" class="node">
<title>1</title>
<polygon fill="none" stroke="black" points="464,-547 233,-547 233,-493 464,-493 464,-547"/>
<text text-anchor="middle" x="348.5" y="-531.8" font-family="Courier,monospace" font-size="14.00">State 1</text>
<text text-anchor="start" x="241" y="-500.8" font-family="Courier,monospace" font-size="14.00"> &#160;4 statement: T_NEWLINE .</text>
</g>
<!-- 0&#45;&gt;1 -->
<g id="edge1" class="edge">
<title>0&#45;&gt;1</title>
<path fill="none" stroke="black" d="M1217.77,-728.02C1063.56,-724.37 783.21,-709.5 551.5,-652 469.47,-631.65 436.47,-638.53 375.5,-580 368.77,-573.54 363.57,-565.08 359.61,-556.6"/>
<polygon fill="black" stroke="black" points="362.73,-555 355.65,-547.11 356.27,-557.69 362.73,-555"/>
<text text-anchor="middle" x="589" y="-621.3" font-family="Courier,monospace" font-size="14.00">T_NEWLINE</text>
</g>
<!-- 2 -->
<g id="node3" class="node">
<title>2</title>
<polygon fill="none" stroke="black" points="1123.5,-547 859.5,-547 859.5,-493 1123.5,-493 1123.5,-547"/>
<text text-anchor="middle" x="991.5" y="-531.8" font-family="Courier,monospace" font-size="14.00">State 2</text>
<text text-anchor="start" x="867.5" y="-500.8" font-family="Courier,monospace" font-size="14.00"> &#160;7 funcao_scope: T_RESERVED .</text>
</g>
<!-- 0&#45;&gt;2 -->
<g id="edge2" class="edge">
<title>0&#45;&gt;2</title>
<path fill="none" stroke="black" d="M1277.92,-702.93C1221.32,-675.41 1131.96,-629.26 1060.5,-580 1049.12,-572.16 1037.45,-562.77 1027.01,-553.81"/>
<polygon fill="black" stroke="black" points="1029.14,-551.02 1019.3,-547.08 1024.53,-556.29 1029.14,-551.02"/>
<text text-anchor="middle" x="1220" y="-621.3" font-family="Courier,monospace" font-size="14.00">T_RESERVED</text>
</g>
<!-- 3 -->
<g id="node4" class="node">
<title>3</title>
<polygon fill="none" stroke="black" points="215,-547 0,-547 0,-493 215,-493 215,-547"/>
<text text-anchor="middle" x="107.5" y="-531.8" font-family="Courier,monospace" font-size="14.00">State 3</text>
<text text-anchor="start" x="8" y="-500.8" font-family="Courier,monospace" font-size="14.00"> &#160;8 funcao_scope: T_ID .</text>
</g>
<!-- 0&#45;&gt;3 -->
<g id="edge3" class="edge">
<title>0&#45;&gt;3</title>
<path fill="none" stroke="black" d="M1217.87,-726.23C995.59,-719.85 516.75,-700.77 359.5,-652 283.97,-628.58 204.18,-583.09 155.1,-552.38"/>
<polygon fill="black" stroke="black" points="156.93,-549.39 146.6,-547.01 153.19,-555.31 156.93,-549.39"/>
<text text-anchor="middle" x="376.5" y="-621.3" font-family="Courier,monospace" font-size="14.00">T_ID</text>
</g>
<!-- 4 -->
<g id="node5" class="node">
<title>4</title>
<polygon fill="none" stroke="black" points="1835,-652 1604,-652 1604,-598 1835,-598 1835,-652"/>
<text text-anchor="middle" x="1719.5" y="-636.8" font-family="Courier,monospace" font-size="14.00">State 4</text>
<text text-anchor="start" x="1612" y="-605.8" font-family="Courier,monospace" font-size="14.00"> &#160;0 $accept: start_ . $end</text>
</g>
<!-- 0&#45;&gt;4 -->
<g id="edge4" class="edge">
<title>0&#45;&gt;4</title>
<path fill="none" stroke="black" stroke-dasharray="5,2" d="M1431.82,-702.99C1454.08,-697.09 1477.61,-690.84 1499.5,-685 1536.35,-675.18 1576.65,-664.38 1612.58,-654.74"/>
<polygon fill="black" stroke="black" points="1613.84,-658.03 1622.59,-652.05 1612.03,-651.27 1613.84,-658.03"/>
<text text-anchor="middle" x="1579.5" y="-673.8" font-family="Courier,monospace" font-size="14.00">start_</text>
</g>
<!-- 5 -->
<g id="node6" class="node">
<title>5</title>
<polygon fill="none" stroke="black" points="2043.5,-652 1853.5,-652 1853.5,-598 2043.5,-598 2043.5,-652"/>
<text text-anchor="middle" x="1948.5" y="-636.8" font-family="Courier,monospace" font-size="14.00">State 5</text>
<text text-anchor="start" x="1861.5" y="-605.8" font-family="Courier,monospace" font-size="14.00"> &#160;1 start_: start_2 .</text>
</g>
<!-- 0&#45;&gt;5 -->
<g id="edge5" class="edge">
<title>0&#45;&gt;5</title>
<path fill="none" stroke="black" stroke-dasharray="5,2" d="M1449.23,-714.65C1552.95,-701.04 1709.02,-678.74 1843.5,-652 1843.6,-651.98 1843.7,-651.96 1843.8,-651.94"/>
<polygon fill="black" stroke="black" points="1844.21,-655.43 1853.3,-649.98 1842.8,-648.57 1844.21,-655.43"/>
<text text-anchor="middle" x="1761.5" y="-673.8" font-family="Courier,monospace" font-size="14.00">start_2</text>
</g>
<!-- 6 -->
<g id="node7" class="node">
<title>6</title>
<polygon fill="none" stroke="black" points="917,-652 636,-652 636,-598 917,-598 917,-652"/>
<text text-anchor="middle" x="776.5" y="-636.8" font-family="Courier,monospace" font-size="14.00">State 6</text>
<text text-anchor="start" x="644" y="-605.8" font-family="Courier,monospace" font-size="14.00"> &#160;2 start_2: statement . start_2</text>
</g>
<!-- 0&#45;&gt;6 -->
<g id="edge6" class="edge">
<title>0&#45;&gt;6</title>
<path fill="none" stroke="black" stroke-dasharray="5,2" d="M1217.74,-721.43C1142.88,-715.07 1043.69,-703.89 957.5,-685 923.41,-677.53 886.66,-666.18 855.23,-655.43"/>
<polygon fill="black" stroke="black" points="856.25,-652.08 845.66,-652.12 853.96,-658.7 856.25,-652.08"/>
<text text-anchor="middle" x="995" y="-673.8" font-family="Courier,monospace" font-size="14.00">statement</text>
</g>
<!-- 7 -->
<g id="node8" class="node">
<title>7</title>
<polygon fill="none" stroke="black" points="1413.5,-547 1141.5,-547 1141.5,-493 1413.5,-493 1413.5,-547"/>
<text text-anchor="middle" x="1277.5" y="-531.8" font-family="Courier,monospace" font-size="14.00">State 7</text>
<text text-anchor="start" x="1149.5" y="-500.8" font-family="Courier,monospace" font-size="14.00"> &#160;5 statement: chamada_funcao .</text>
</g>
<!-- 0&#45;&gt;7 -->
<g id="edge7" class="edge">
<title>0&#45;&gt;7</title>
<path fill="none" stroke="black" stroke-dasharray="5,2" d="M1336.43,-702.96C1339.07,-669.46 1339.88,-610.2 1319.5,-565 1317.98,-561.62 1316.08,-558.35 1313.95,-555.21"/>
<polygon fill="black" stroke="black" points="1316.7,-553.04 1307.83,-547.23 1311.14,-557.3 1316.7,-553.04"/>
<text text-anchor="middle" x="1395.5" y="-621.3" font-family="Courier,monospace" font-size="14.00">chamada_funcao</text>
</g>
<!-- 8 -->
<g id="node9" class="node">
<title>8</title>
<polygon fill="none" stroke="black" points="2249,-547 1432,-547 1432,-493 2249,-493 2249,-547"/>
<text text-anchor="middle" x="1840.5" y="-531.8" font-family="Courier,monospace" font-size="14.00">State 8</text>
<text text-anchor="start" x="1440" y="-500.8" font-family="Courier,monospace" font-size="14.00"> &#160;6 chamada_funcao: funcao_scope . T_LEFT_PARENTHESES funcao_args T_RIGHT_PARENTHESES T_SEPARATOR</text>
</g>
<!-- 0&#45;&gt;8 -->
<g id="edge8" class="edge">
<title>0&#45;&gt;8</title>
<path fill="none" stroke="black" stroke-dasharray="5,2" d="M1385.74,-702.98C1409.27,-689.72 1436.44,-672.14 1457.5,-652 1478.53,-631.9 1470.4,-614.3 1494.5,-598 1525.97,-576.72 1562.38,-561.23 1599.53,-549.97"/>
<polygon fill="black" stroke="black" points="1600.88,-553.22 1609.5,-547.05 1598.92,-546.5 1600.88,-553.22"/>
<text text-anchor="middle" x="1544.5" y="-621.3" font-family="Courier,monospace" font-size="14.00">funcao_scope</text>
</g>
<!-- 0R3 -->
<g id="node10" class="node">
<title>0R3</title>
<polygon fill="#b2df8a" stroke="black" points="2091.5,-643 2061.33,-625 2091.5,-607 2121.67,-625 2091.5,-643"/>
<text text-anchor="middle" x="2091.5" y="-621.3" font-family="Courier,monospace" font-size="14.00">R3</text>
</g>
<!-- 0&#45;&gt;0R3 -->
<g id="edge9" class="edge">
<title>0&#45;&gt;0R3</title>
<path fill="none" stroke="black" d="M1449.3,-723.6C1623.72,-714.28 1944.9,-692.21 2052.5,-652 2059,-649.57 2065.5,-645.87 2071.28,-642.02"/>
<polygon fill="black" stroke="black" points="2073.58,-644.68 2079.66,-636 2069.49,-638.99 2073.58,-644.68"/>
</g>
<!-- 1R4 -->
<g id="node11" class="node">
<title>1R4</title>
<polygon fill="#b2df8a" stroke="black" points="348.5,-433 318.33,-415 348.5,-397 378.67,-415 348.5,-433"/>
<text text-anchor="middle" x="348.5" y="-411.3" font-family="Courier,monospace" font-size="14.00">R4</text>
</g>
<!-- 1&#45;&gt;1R4 -->
<g id="edge10" class="edge">
<title>1&#45;&gt;1R4</title>
<path fill="none" stroke="black" d="M348.5,-492.74C348.5,-477.68 348.5,-458.8 348.5,-443.53"/>
<polygon fill="black" stroke="black" points="352,-443.16 348.5,-433.16 345,-443.16 352,-443.16"/>
</g>
<!-- 2R7 -->
<g id="node12" class="node">
<title>2R7</title>
<polygon fill="#b2df8a" stroke="black" points="991.5,-433 961.33,-415 991.5,-397 1021.67,-415 991.5,-433"/>
<text text-anchor="middle" x="991.5" y="-411.3" font-family="Courier,monospace" font-size="14.00">R7</text>
</g>
<!-- 2&#45;&gt;2R7 -->
<g id="edge11" class="edge">
<title>2&#45;&gt;2R7</title>
<path fill="none" stroke="black" d="M991.5,-492.74C991.5,-477.68 991.5,-458.8 991.5,-443.53"/>
<polygon fill="black" stroke="black" points="995,-443.16 991.5,-433.16 988,-443.16 995,-443.16"/>
</g>
<!-- 3R8 -->
<g id="node13" class="node">
<title>3R8</title>
<polygon fill="#b2df8a" stroke="black" points="107.5,-433 77.33,-415 107.5,-397 137.67,-415 107.5,-433"/>
<text text-anchor="middle" x="107.5" y="-411.3" font-family="Courier,monospace" font-size="14.00">R8</text>
</g>
<!-- 3&#45;&gt;3R8 -->
<g id="edge12" class="edge">
<title>3&#45;&gt;3R8</title>
<path fill="none" stroke="black" d="M107.5,-492.74C107.5,-477.68 107.5,-458.8 107.5,-443.53"/>
<polygon fill="black" stroke="black" points="111,-443.16 107.5,-433.16 104,-443.16 111,-443.16"/>
</g>
<!-- 9 -->
<g id="node14" class="node">
<title>9</title>
<polygon fill="none" stroke="black" points="2498,-547 2267,-547 2267,-493 2498,-493 2498,-547"/>
<text text-anchor="middle" x="2382.5" y="-531.8" font-family="Courier,monospace" font-size="14.00">State 9</text>
<text text-anchor="start" x="2275" y="-500.8" font-family="Courier,monospace" font-size="14.00"> &#160;0 $accept: start_ $end .</text>
</g>
<!-- 4&#45;&gt;9 -->
<g id="edge13" class="edge">
<title>4&#45;&gt;9</title>
<path fill="none" stroke="black" d="M1835.21,-599.58C1838.34,-599.04 1841.44,-598.51 1844.5,-598 2023.76,-568.34 2073.3,-576.87 2256.81,-547.06"/>
<polygon fill="black" stroke="black" points="2257.49,-550.49 2266.79,-545.42 2256.35,-543.58 2257.49,-550.49"/>
<text text-anchor="middle" x="2139.5" y="-568.8" font-family="Courier,monospace" font-size="14.00">$end</text>
</g>
<!-- 5R1 -->
<g id="node15" class="node">
<title>5R1</title>
<polygon fill="#b2df8a" stroke="black" points="2546.5,-538 2516.33,-520 2546.5,-502 2576.67,-520 2546.5,-538"/>
<text text-anchor="middle" x="2546.5" y="-516.3" font-family="Courier,monospace" font-size="14.00">R1</text>
</g>
<!-- 5&#45;&gt;5R1 -->
<g id="edge14" class="edge">
<title>5&#45;&gt;5R1</title>
<path fill="none" stroke="black" d="M2043.61,-599.69C2046.6,-599.09 2049.57,-598.53 2052.5,-598 2252.32,-561.96 2315.36,-615.5 2506.5,-547 2513.15,-544.62 2519.81,-540.93 2525.74,-537.08"/>
<polygon fill="black" stroke="black" points="2528.16,-539.66 2534.34,-531.06 2524.14,-533.93 2528.16,-539.66"/>
</g>
<!-- 6&#45;&gt;1 -->
<g id="edge15" class="edge">
<title>6&#45;&gt;1</title>
<path fill="none" stroke="black" d="M669.77,-597.97C627.36,-587.66 578.14,-575.73 533.5,-565 512.48,-559.95 490.12,-554.6 468.46,-549.45"/>
<polygon fill="black" stroke="black" points="469.11,-546 458.57,-547.09 467.49,-552.81 469.11,-546"/>
<text text-anchor="middle" x="632" y="-568.8" font-family="Courier,monospace" font-size="14.00">T_NEWLINE</text>
</g>
<!-- 6&#45;&gt;2 -->
<g id="edge16" class="edge">
<title>6&#45;&gt;2</title>
<path fill="none" stroke="black" d="M831.03,-597.88C860.46,-583.78 896.94,-566.3 927.68,-551.57"/>
<polygon fill="black" stroke="black" points="929.52,-554.57 937.03,-547.1 926.5,-548.26 929.52,-554.57"/>
<text text-anchor="middle" x="939" y="-568.8" font-family="Courier,monospace" font-size="14.00">T_RESERVED</text>
</g>
<!-- 6&#45;&gt;3 -->
<g id="edge17" class="edge">
<title>6&#45;&gt;3</title>
<path fill="none" stroke="black" d="M635.93,-607.66C526.38,-594.17 370.3,-573.28 225.17,-547.25"/>
<polygon fill="black" stroke="black" points="225.65,-543.78 215.19,-545.45 224.41,-550.67 225.65,-543.78"/>
<text text-anchor="middle" x="437.5" y="-568.8" font-family="Courier,monospace" font-size="14.00">T_ID</text>
</g>
<!-- 6&#45;&gt;6 -->
<g id="edge19" class="edge">
<title>6&#45;&gt;6</title>
<path fill="none" stroke="black" stroke-dasharray="5,2" d="M917.16,-632.39C928.19,-630.76 935,-628.3 935,-625 935,-622.89 932.2,-621.11 927.29,-619.69"/>
<polygon fill="black" stroke="black" points="927.66,-616.19 917.16,-617.61 926.25,-623.05 927.66,-616.19"/>
<text text-anchor="middle" x="972.5" y="-621.3" font-family="Courier,monospace" font-size="14.00">statement</text>
</g>
<!-- 6&#45;&gt;7 -->
<g id="edge20" class="edge">
<title>6&#45;&gt;7</title>
<path fill="none" stroke="black" stroke-dasharray="5,2" d="M903.25,-597.94C975.8,-583.03 1066.84,-564.31 1140.96,-549.07"/>
<polygon fill="black" stroke="black" points="1141.75,-552.48 1150.84,-547.04 1140.34,-545.63 1141.75,-552.48"/>
<text text-anchor="middle" x="1115.5" y="-568.8" font-family="Courier,monospace" font-size="14.00">chamada_funcao</text>
</g>
<!-- 6&#45;&gt;8 -->
<g id="edge21" class="edge">
<title>6&#45;&gt;8</title>
<path fill="none" stroke="black" stroke-dasharray="5,2" d="M917.14,-609.02C952.2,-605.35 989.72,-601.48 1024.5,-598 1197.34,-580.72 1390.88,-562.41 1546.09,-547.99"/>
<polygon fill="black" stroke="black" points="1546.62,-551.45 1556.25,-547.04 1545.97,-544.48 1546.62,-551.45"/>
<text text-anchor="middle" x="1411.5" y="-568.8" font-family="Courier,monospace" font-size="14.00">funcao_scope</text>
</g>
<!-- 10 -->
<g id="node16" class="node">
<title>10</title>
<polygon fill="none" stroke="black" points="763,-547 482,-547 482,-493 763,-493 763,-547"/>
<text text-anchor="middle" x="622.5" y="-531.8" font-family="Courier,monospace" font-size="14.00">State 10</text>
<text text-anchor="start" x="490" y="-500.8" font-family="Courier,monospace" font-size="14.00"> &#160;2 start_2: statement start_2 .</text>
</g>
<!-- 6&#45;&gt;10 -->
<g id="edge18" class="edge">
<title>6&#45;&gt;10</title>
<path fill="none" stroke="black" stroke-dasharray="5,2" d="M737.24,-597.74C716.71,-584.01 691.42,-567.09 669.81,-552.64"/>
<polygon fill="black" stroke="black" points="671.68,-549.68 661.42,-547.03 667.79,-555.5 671.68,-549.68"/>
<text text-anchor="middle" x="738.5" y="-568.8" font-family="Courier,monospace" font-size="14.00">start_2</text>
</g>
<!-- 6R3 -->
<g id="node17" class="node">
<title>6R3</title>
<polygon fill="#b2df8a" stroke="black" points="811.5,-538 781.33,-520 811.5,-502 841.67,-520 811.5,-538"/>
<text text-anchor="middle" x="811.5" y="-516.3" font-family="Courier,monospace" font-size="14.00">R3</text>
</g>
<!-- 6&#45;&gt;6R3 -->
<g id="edge22" class="edge">
<title>6&#45;&gt;6R3</title>
<path fill="none" stroke="black" d="M785.42,-597.74C790.97,-581.41 798.05,-560.58 803.43,-544.75"/>
<polygon fill="black" stroke="black" points="806.79,-545.75 806.69,-535.16 800.16,-543.5 806.79,-545.75"/>
</g>
<!-- 7R5 -->
<g id="node18" class="node">
<title>7R5</title>
<polygon fill="#b2df8a" stroke="black" points="1277.5,-433 1247.33,-415 1277.5,-397 1307.67,-415 1277.5,-433"/>
<text text-anchor="middle" x="1277.5" y="-411.3" font-family="Courier,monospace" font-size="14.00">R5</text>
</g>
<!-- 7&#45;&gt;7R5 -->
<g id="edge23" class="edge">
<title>7&#45;&gt;7R5</title>
<path fill="none" stroke="black" d="M1277.5,-492.74C1277.5,-477.68 1277.5,-458.8 1277.5,-443.53"/>
<polygon fill="black" stroke="black" points="1281,-443.16 1277.5,-433.16 1274,-443.16 1281,-443.16"/>
</g>
<!-- 11 -->
<g id="node19" class="node">
<title>11</title>
<polygon fill="none" stroke="black" points="2249,-442 1432,-442 1432,-388 2249,-388 2249,-442"/>
<text text-anchor="middle" x="1840.5" y="-426.8" font-family="Courier,monospace" font-size="14.00">State 11</text>
<text text-anchor="start" x="1440" y="-395.8" font-family="Courier,monospace" font-size="14.00"> &#160;6 chamada_funcao: funcao_scope T_LEFT_PARENTHESES . funcao_args T_RIGHT_PARENTHESES T_SEPARATOR</text>
</g>
<!-- 8&#45;&gt;11 -->
<g id="edge24" class="edge">
<title>8&#45;&gt;11</title>
<path fill="none" stroke="black" d="M1840.5,-492.74C1840.5,-480.51 1840.5,-465.76 1840.5,-452.48"/>
<polygon fill="black" stroke="black" points="1844,-452.21 1840.5,-442.21 1837,-452.21 1844,-452.21"/>
<text text-anchor="middle" x="1915" y="-463.8" font-family="Courier,monospace" font-size="14.00">T_LEFT_PARENTHESES</text>
</g>
<!-- 9R0 -->
<g id="node20" class="node">
<title>9R0</title>
<polygon fill="#a6cee3" stroke="black" points="2382.5,-433 2344.63,-415 2382.5,-397 2420.37,-415 2382.5,-433"/>
<text text-anchor="middle" x="2382.5" y="-411.3" font-family="Courier,monospace" font-size="14.00">Acc</text>
</g>
<!-- 9&#45;&gt;9R0 -->
<g id="edge25" class="edge">
<title>9&#45;&gt;9R0</title>
<path fill="none" stroke="black" d="M2382.5,-492.74C2382.5,-477.68 2382.5,-458.8 2382.5,-443.53"/>
<polygon fill="black" stroke="black" points="2386,-443.16 2382.5,-433.16 2379,-443.16 2386,-443.16"/>
</g>
<!-- 10R2 -->
<g id="node21" class="node">
<title>10R2</title>
<polygon fill="#b2df8a" stroke="black" points="622.5,-433 592.33,-415 622.5,-397 652.67,-415 622.5,-433"/>
<text text-anchor="middle" x="622.5" y="-411.3" font-family="Courier,monospace" font-size="14.00">R2</text>
</g>
<!-- 10&#45;&gt;10R2 -->
<g id="edge26" class="edge">
<title>10&#45;&gt;10R2</title>
<path fill="none" stroke="black" d="M622.5,-492.74C622.5,-477.68 622.5,-458.8 622.5,-443.53"/>
<polygon fill="black" stroke="black" points="626,-443.16 622.5,-433.16 619,-443.16 626,-443.16"/>
</g>
<!-- 12 -->
<g id="node22" class="node">
<title>12</title>
<polygon fill="none" stroke="black" points="1361.5,-337 1155.5,-337 1155.5,-283 1361.5,-283 1361.5,-337"/>
<text text-anchor="middle" x="1258.5" y="-321.8" font-family="Courier,monospace" font-size="14.00">State 12</text>
<text text-anchor="start" x="1163.5" y="-290.8" font-family="Courier,monospace" font-size="14.00"> 11 funcao_args: T_ID .</text>
</g>
<!-- 11&#45;&gt;12 -->
<g id="edge27" class="edge">
<title>11&#45;&gt;12</title>
<path fill="none" stroke="black" d="M1664.52,-387.98C1578.82,-374.61 1474.11,-357.27 1371.5,-337.15"/>
<polygon fill="black" stroke="black" points="1372.07,-333.7 1361.58,-335.2 1370.72,-340.57 1372.07,-333.7"/>
<text text-anchor="middle" x="1568.5" y="-358.8" font-family="Courier,monospace" font-size="14.00">T_ID</text>
</g>
<!-- 13 -->
<g id="node23" class="node">
<title>13</title>
<polygon fill="none" stroke="black" points="1619,-337 1380,-337 1380,-283 1619,-283 1619,-337"/>
<text text-anchor="middle" x="1499.5" y="-321.8" font-family="Courier,monospace" font-size="14.00">State 13</text>
<text text-anchor="start" x="1388" y="-290.8" font-family="Courier,monospace" font-size="14.00"> 10 funcao_args: T_STRING .</text>
</g>
<!-- 11&#45;&gt;13 -->
<g id="edge28" class="edge">
<title>11&#45;&gt;13</title>
<path fill="none" stroke="black" d="M1754.01,-387.88C1705.64,-373.26 1645.24,-355.02 1595.42,-339.97"/>
<polygon fill="black" stroke="black" points="1596.19,-336.55 1585.6,-337.01 1594.16,-343.25 1596.19,-336.55"/>
<text text-anchor="middle" x="1724" y="-358.8" font-family="Courier,monospace" font-size="14.00">T_STRING</text>
</g>
<!-- 14 -->
<g id="node24" class="node">
<title>14</title>
<polygon fill="none" stroke="black" points="2454,-337 1637,-337 1637,-283 2454,-283 2454,-337"/>
<text text-anchor="middle" x="2045.5" y="-321.8" font-family="Courier,monospace" font-size="14.00">State 14</text>
<text text-anchor="start" x="1645" y="-290.8" font-family="Courier,monospace" font-size="14.00"> &#160;6 chamada_funcao: funcao_scope T_LEFT_PARENTHESES funcao_args . T_RIGHT_PARENTHESES T_SEPARATOR</text>
</g>
<!-- 11&#45;&gt;14 -->
<g id="edge29" class="edge">
<title>11&#45;&gt;14</title>
<path fill="none" stroke="black" stroke-dasharray="5,2" d="M1892.5,-387.88C1920.43,-373.84 1955.04,-356.45 1984.27,-341.76"/>
<polygon fill="black" stroke="black" points="1986.2,-344.71 1993.56,-337.1 1983.05,-338.46 1986.2,-344.71"/>
<text text-anchor="middle" x="2001" y="-358.8" font-family="Courier,monospace" font-size="14.00">funcao_args</text>
</g>
<!-- 11R9 -->
<g id="node25" class="node">
<title>11R9</title>
<polygon fill="#b2df8a" stroke="black" points="2502.5,-328 2472.33,-310 2502.5,-292 2532.67,-310 2502.5,-328"/>
<text text-anchor="middle" x="2502.5" y="-306.3" font-family="Courier,monospace" font-size="14.00">R9</text>
</g>
<!-- 11&#45;&gt;11R9 -->
<g id="edge30" class="edge">
<title>11&#45;&gt;11R9</title>
<path fill="none" stroke="black" d="M2156.83,-387.97C2280.17,-375.07 2405.51,-357.79 2462.5,-337 2469.14,-334.58 2475.79,-330.88 2481.72,-327.03"/>
<polygon fill="black" stroke="black" points="2484.13,-329.61 2490.32,-321.01 2480.12,-323.88 2484.13,-329.61"/>
</g>
<!-- 12R11 -->
<g id="node26" class="node">
<title>12R11</title>
<polygon fill="#b2df8a" stroke="black" points="1258.5,-223 1220.63,-205 1258.5,-187 1296.37,-205 1258.5,-223"/>
<text text-anchor="middle" x="1258.5" y="-201.3" font-family="Courier,monospace" font-size="14.00">R11</text>
</g>
<!-- 12&#45;&gt;12R11 -->
<g id="edge31" class="edge">
<title>12&#45;&gt;12R11</title>
<path fill="none" stroke="black" d="M1258.5,-282.74C1258.5,-267.68 1258.5,-248.8 1258.5,-233.53"/>
<polygon fill="black" stroke="black" points="1262,-233.16 1258.5,-223.16 1255,-233.16 1262,-233.16"/>
</g>
<!-- 13R10 -->
<g id="node27" class="node">
<title>13R10</title>
<polygon fill="#b2df8a" stroke="black" points="1499.5,-223 1461.63,-205 1499.5,-187 1537.37,-205 1499.5,-223"/>
<text text-anchor="middle" x="1499.5" y="-201.3" font-family="Courier,monospace" font-size="14.00">R10</text>
</g>
<!-- 13&#45;&gt;13R10 -->
<g id="edge32" class="edge">
<title>13&#45;&gt;13R10</title>
<path fill="none" stroke="black" d="M1499.5,-282.74C1499.5,-267.68 1499.5,-248.8 1499.5,-233.53"/>
<polygon fill="black" stroke="black" points="1503,-233.16 1499.5,-223.16 1496,-233.16 1503,-233.16"/>
</g>
<!-- 15 -->
<g id="node28" class="node">
<title>15</title>
<polygon fill="none" stroke="black" points="2454,-232 1637,-232 1637,-178 2454,-178 2454,-232"/>
<text text-anchor="middle" x="2045.5" y="-216.8" font-family="Courier,monospace" font-size="14.00">State 15</text>
<text text-anchor="start" x="1645" y="-185.8" font-family="Courier,monospace" font-size="14.00"> &#160;6 chamada_funcao: funcao_scope T_LEFT_PARENTHESES funcao_args T_RIGHT_PARENTHESES . T_SEPARATOR</text>
</g>
<!-- 14&#45;&gt;15 -->
<g id="edge33" class="edge">
<title>14&#45;&gt;15</title>
<path fill="none" stroke="black" d="M2045.5,-282.74C2045.5,-270.51 2045.5,-255.76 2045.5,-242.48"/>
<polygon fill="black" stroke="black" points="2049,-242.21 2045.5,-232.21 2042,-242.21 2049,-242.21"/>
<text text-anchor="middle" x="2124" y="-253.8" font-family="Courier,monospace" font-size="14.00">T_RIGHT_PARENTHESES</text>
</g>
<!-- 16 -->
<g id="node29" class="node">
<title>16</title>
<polygon fill="none" stroke="black" points="2454,-127 1637,-127 1637,-73 2454,-73 2454,-127"/>
<text text-anchor="middle" x="2045.5" y="-111.8" font-family="Courier,monospace" font-size="14.00">State 16</text>
<text text-anchor="start" x="1645" y="-80.8" font-family="Courier,monospace" font-size="14.00"> &#160;6 chamada_funcao: funcao_scope T_LEFT_PARENTHESES funcao_args T_RIGHT_PARENTHESES T_SEPARATOR .</text>
</g>
<!-- 15&#45;&gt;16 -->
<g id="edge34" class="edge">
<title>15&#45;&gt;16</title>
<path fill="none" stroke="black" d="M2045.5,-177.74C2045.5,-165.51 2045.5,-150.76 2045.5,-137.48"/>
<polygon fill="black" stroke="black" points="2049,-137.21 2045.5,-127.21 2042,-137.21 2049,-137.21"/>
<text text-anchor="middle" x="2091" y="-148.8" font-family="Courier,monospace" font-size="14.00">T_SEPARATOR</text>
</g>
<!-- 16R6 -->
<g id="node30" class="node">
<title>16R6</title>
<polygon fill="#b2df8a" stroke="black" points="2045.5,-36 2015.33,-18 2045.5,0 2075.67,-18 2045.5,-36"/>
<text text-anchor="middle" x="2045.5" y="-14.3" font-family="Courier,monospace" font-size="14.00">R6</text>
</g>
<!-- 16&#45;&gt;16R6 -->
<g id="edge35" class="edge">
<title>16&#45;&gt;16R6</title>
<path fill="none" stroke="black" d="M2045.5,-72.81C2045.5,-64.35 2045.5,-54.95 2045.5,-46.4"/>
<polygon fill="black" stroke="black" points="2049,-46.17 2045.5,-36.17 2042,-46.17 2049,-46.17"/>
</g>
</g>
</svg>
