<?xml version="1.0" encoding="UTF-8" standalone="no"?>
<!DOCTYPE svg PUBLIC "-//W3C//DTD SVG 1.1//EN"
 "http://www.w3.org/Graphics/SVG/1.1/DTD/svg11.dtd">
<!-- Generated by graphviz version 2.43.0 (0)
 -->
<!-- Title: grammar.y Pages: 1 -->
<svg width="1687pt" height="450pt"
 viewBox="0.00 0.00 1686.83 450.00" xmlns="http://www.w3.org/2000/svg" xmlns:xlink="http://www.w3.org/1999/xlink">
<g id="page0,1_graph0" class="graph" transform="scale(1 1) rotate(0) translate(4 446)">
<title>grammar.y</title>
<polygon fill="white" stroke="transparent" points="-4,4 -4,-446 1682.83,-446 1682.83,4 -4,4"/>
<!-- 0 -->
<g id="node1" class="node">
<title>0</title>
<polygon fill="none" stroke="black" points="1175,-442 944,-442 944,-388 1175,-388 1175,-442"/>
<text text-anchor="middle" x="1059.5" y="-426.8" font-family="Courier,monospace" font-size="14.00">State 0</text>
<text text-anchor="start" x="952" y="-395.8" font-family="Courier,monospace" font-size="14.00"> &#160;0 $accept: . start_ $end</text>
</g>
<!-- 1 -->
<g id="node2" class="node">
<title>1</title>
<polygon fill="none" stroke="black" points="546,-232 315,-232 315,-178 546,-178 546,-232"/>
<text text-anchor="middle" x="430.5" y="-216.8" font-family="Courier,monospace" font-size="14.00">State 1</text>
<text text-anchor="start" x="323" y="-185.8" font-family="Courier,monospace" font-size="14.00"> &#160;4 statement: T_NEWLINE .</text>
</g>
<!-- 0&#45;&gt;1 -->
<g id="edge1" class="edge">
<title>0&#45;&gt;1</title>
<path fill="none" stroke="black" d="M943.96,-412.97C793.15,-409.3 540.1,-394.47 469.5,-337 441.6,-314.29 433.06,-272.53 430.75,-242.25"/>
<polygon fill="black" stroke="black" points="434.23,-241.85 430.16,-232.07 427.24,-242.25 434.23,-241.85"/>
<text text-anchor="middle" x="507" y="-306.3" font-family="Courier,monospace" font-size="14.00">T_NEWLINE</text>
</g>
<!-- 2 -->
<g id="node3" class="node">
<title>2</title>
<polygon fill="none" stroke="black" points="297,-232 0,-232 0,-178 297,-178 297,-232"/>
<text text-anchor="middle" x="148.5" y="-216.8" font-family="Courier,monospace" font-size="14.00">State 2</text>
<text text-anchor="start" x="8" y="-185.8" font-family="Courier,monospace" font-size="14.00"> &#160;6 incremento: T_ID . T_INCREMENT</text>
</g>
<!-- 0&#45;&gt;2 -->
<g id="edge2" class="edge">
<title>0&#45;&gt;2</title>
<path fill="none" stroke="black" d="M943.79,-412.84C830.17,-409.84 652.42,-400.16 501.5,-370 455.19,-360.75 444.04,-355.29 400.5,-337 329.95,-307.37 252.33,-265.53 202.14,-237.16"/>
<polygon fill="black" stroke="black" points="203.83,-234.1 193.4,-232.21 200.37,-240.19 203.83,-234.1"/>
<text text-anchor="middle" x="417.5" y="-306.3" font-family="Courier,monospace" font-size="14.00">T_ID</text>
</g>
<!-- 3 -->
<g id="node4" class="node">
<title>3</title>
<polygon fill="none" stroke="black" points="1392,-337 1161,-337 1161,-283 1392,-283 1392,-337"/>
<text text-anchor="middle" x="1276.5" y="-321.8" font-family="Courier,monospace" font-size="14.00">State 3</text>
<text text-anchor="start" x="1169" y="-290.8" font-family="Courier,monospace" font-size="14.00"> &#160;0 $accept: start_ . $end</text>
</g>
<!-- 0&#45;&gt;3 -->
<g id="edge3" class="edge">
<title>0&#45;&gt;3</title>
<path fill="none" stroke="black" stroke-dasharray="5,2" d="M1114.54,-387.88C1144.24,-373.78 1181.06,-356.3 1212.09,-341.57"/>
<polygon fill="black" stroke="black" points="1213.99,-344.55 1221.52,-337.1 1210.99,-338.22 1213.99,-344.55"/>
<text text-anchor="middle" x="1206.5" y="-358.8" font-family="Courier,monospace" font-size="14.00">start_</text>
</g>
<!-- 4 -->
<g id="node5" class="node">
<title>4</title>
<polygon fill="none" stroke="black" points="1600.5,-337 1410.5,-337 1410.5,-283 1600.5,-283 1600.5,-337"/>
<text text-anchor="middle" x="1505.5" y="-321.8" font-family="Courier,monospace" font-size="14.00">State 4</text>
<text text-anchor="start" x="1418.5" y="-290.8" font-family="Courier,monospace" font-size="14.00"> &#160;1 start_: start_2 .</text>
</g>
<!-- 0&#45;&gt;4 -->
<g id="edge4" class="edge">
<title>0&#45;&gt;4</title>
<path fill="none" stroke="black" stroke-dasharray="5,2" d="M1175.25,-388.49C1241.32,-373.77 1325.64,-354.72 1400.5,-337 1400.6,-336.98 1400.7,-336.95 1400.8,-336.93"/>
<polygon fill="black" stroke="black" points="1401.32,-340.4 1410.23,-334.68 1399.69,-333.59 1401.32,-340.4"/>
<text text-anchor="middle" x="1345.5" y="-358.8" font-family="Courier,monospace" font-size="14.00">start_2</text>
</g>
<!-- 5 -->
<g id="node6" class="node">
<title>5</title>
<polygon fill="none" stroke="black" points="835,-337 554,-337 554,-283 835,-283 835,-337"/>
<text text-anchor="middle" x="694.5" y="-321.8" font-family="Courier,monospace" font-size="14.00">State 5</text>
<text text-anchor="start" x="562" y="-290.8" font-family="Courier,monospace" font-size="14.00"> &#160;2 start_2: statement . start_2</text>
</g>
<!-- 0&#45;&gt;5 -->
<g id="edge5" class="edge">
<title>0&#45;&gt;5</title>
<path fill="none" stroke="black" stroke-dasharray="5,2" d="M966.92,-387.88C914.93,-373.2 849.96,-354.87 796.5,-339.78"/>
<polygon fill="black" stroke="black" points="797.24,-336.35 786.66,-337.01 795.34,-343.09 797.24,-336.35"/>
<text text-anchor="middle" x="937" y="-358.8" font-family="Courier,monospace" font-size="14.00">statement</text>
</g>
<!-- 6 -->
<g id="node7" class="node">
<title>6</title>
<polygon fill="none" stroke="black" points="1280.5,-232 942.5,-232 942.5,-178 1280.5,-178 1280.5,-232"/>
<text text-anchor="middle" x="1111.5" y="-216.8" font-family="Courier,monospace" font-size="14.00">State 6</text>
<text text-anchor="start" x="950.5" y="-185.8" font-family="Courier,monospace" font-size="14.00"> &#160;5 statement: incremento . T_SEPARATOR</text>
</g>
<!-- 0&#45;&gt;6 -->
<g id="edge6" class="edge">
<title>0&#45;&gt;6</title>
<path fill="none" stroke="black" stroke-dasharray="5,2" d="M1057.98,-387.8C1057.18,-360.92 1058.04,-318.18 1068.5,-283 1072.82,-268.47 1080.23,-253.67 1087.69,-240.97"/>
<polygon fill="black" stroke="black" points="1090.86,-242.5 1093.09,-232.14 1084.89,-238.85 1090.86,-242.5"/>
<text text-anchor="middle" x="1110" y="-306.3" font-family="Courier,monospace" font-size="14.00">incremento</text>
</g>
<!-- 0R3 -->
<g id="node8" class="node">
<title>0R3</title>
<polygon fill="#b2df8a" stroke="black" points="1648.5,-328 1618.33,-310 1648.5,-292 1678.67,-310 1648.5,-328"/>
<text text-anchor="middle" x="1648.5" y="-306.3" font-family="Courier,monospace" font-size="14.00">R3</text>
</g>
<!-- 0&#45;&gt;0R3 -->
<g id="edge7" class="edge">
<title>0&#45;&gt;0R3</title>
<path fill="none" stroke="black" d="M1175.14,-412.77C1289.09,-408.14 1466.41,-391.67 1609.5,-337 1615.99,-334.52 1622.48,-330.81 1628.26,-326.96"/>
<polygon fill="black" stroke="black" points="1630.55,-329.62 1636.64,-320.95 1626.47,-323.93 1630.55,-329.62"/>
</g>
<!-- 1R4 -->
<g id="node9" class="node">
<title>1R4</title>
<polygon fill="#b2df8a" stroke="black" points="430.5,-118 400.33,-100 430.5,-82 460.67,-100 430.5,-118"/>
<text text-anchor="middle" x="430.5" y="-96.3" font-family="Courier,monospace" font-size="14.00">R4</text>
</g>
<!-- 1&#45;&gt;1R4 -->
<g id="edge8" class="edge">
<title>1&#45;&gt;1R4</title>
<path fill="none" stroke="black" d="M430.5,-177.74C430.5,-162.68 430.5,-143.8 430.5,-128.53"/>
<polygon fill="black" stroke="black" points="434,-128.16 430.5,-118.16 427,-128.16 434,-128.16"/>
</g>
<!-- 7 -->
<g id="node10" class="node">
<title>7</title>
<polygon fill="none" stroke="black" points="297,-127 0,-127 0,-73 297,-73 297,-127"/>
<text text-anchor="middle" x="148.5" y="-111.8" font-family="Courier,monospace" font-size="14.00">State 7</text>
<text text-anchor="start" x="8" y="-80.8" font-family="Courier,monospace" font-size="14.00"> &#160;6 incremento: T_ID T_INCREMENT .</text>
</g>
<!-- 2&#45;&gt;7 -->
<g id="edge9" class="edge">
<title>2&#45;&gt;7</title>
<path fill="none" stroke="black" d="M148.5,-177.74C148.5,-165.51 148.5,-150.76 148.5,-137.48"/>
<polygon fill="black" stroke="black" points="152,-137.21 148.5,-127.21 145,-137.21 152,-137.21"/>
<text text-anchor="middle" x="194" y="-148.8" font-family="Courier,monospace" font-size="14.00">T_INCREMENT</text>
</g>
<!-- 8 -->
<g id="node11" class="node">
<title>8</title>
<polygon fill="none" stroke="black" points="1529,-232 1298,-232 1298,-178 1529,-178 1529,-232"/>
<text text-anchor="middle" x="1413.5" y="-216.8" font-family="Courier,monospace" font-size="14.00">State 8</text>
<text text-anchor="start" x="1306" y="-185.8" font-family="Courier,monospace" font-size="14.00"> &#160;0 $accept: start_ $end .</text>
</g>
<!-- 3&#45;&gt;8 -->
<g id="edge10" class="edge">
<title>3&#45;&gt;8</title>
<path fill="none" stroke="black" d="M1311.43,-282.74C1329.38,-269.24 1351.42,-252.67 1370.43,-238.38"/>
<polygon fill="black" stroke="black" points="1372.75,-241.02 1378.64,-232.21 1368.54,-235.42 1372.75,-241.02"/>
<text text-anchor="middle" x="1370.5" y="-253.8" font-family="Courier,monospace" font-size="14.00">$end</text>
</g>
<!-- 4R1 -->
<g id="node12" class="node">
<title>4R1</title>
<polygon fill="#b2df8a" stroke="black" points="1577.5,-223 1547.33,-205 1577.5,-187 1607.67,-205 1577.5,-223"/>
<text text-anchor="middle" x="1577.5" y="-201.3" font-family="Courier,monospace" font-size="14.00">R1</text>
</g>
<!-- 4&#45;&gt;4R1 -->
<g id="edge11" class="edge">
<title>4&#45;&gt;4R1</title>
<path fill="none" stroke="black" d="M1523.85,-282.74C1536.09,-265.24 1551.93,-242.57 1563.22,-226.42"/>
<polygon fill="black" stroke="black" points="1566.12,-228.39 1568.98,-218.19 1560.38,-224.38 1566.12,-228.39"/>
</g>
<!-- 5&#45;&gt;1 -->
<g id="edge12" class="edge">
<title>5&#45;&gt;1</title>
<path fill="none" stroke="black" d="M610.37,-282.93C593.73,-277.33 576.47,-271.22 560.5,-265 538.37,-256.38 514.6,-245.94 493.51,-236.26"/>
<polygon fill="black" stroke="black" points="494.88,-233.04 484.33,-232.02 491.94,-239.39 494.88,-233.04"/>
<text text-anchor="middle" x="598" y="-253.8" font-family="Courier,monospace" font-size="14.00">T_NEWLINE</text>
</g>
<!-- 5&#45;&gt;2 -->
<g id="edge13" class="edge">
<title>5&#45;&gt;2</title>
<path fill="none" stroke="black" d="M556.37,-282.94C477.14,-268 377.68,-249.23 296.81,-233.98"/>
<polygon fill="black" stroke="black" points="297.01,-230.45 286.54,-232.04 295.71,-237.33 297.01,-230.45"/>
<text text-anchor="middle" x="471.5" y="-253.8" font-family="Courier,monospace" font-size="14.00">T_ID</text>
</g>
<!-- 5&#45;&gt;5 -->
<g id="edge15" class="edge">
<title>5&#45;&gt;5</title>
<path fill="none" stroke="black" stroke-dasharray="5,2" d="M835.16,-317.39C846.19,-315.76 853,-313.3 853,-310 853,-307.89 850.2,-306.11 845.29,-304.69"/>
<polygon fill="black" stroke="black" points="845.66,-301.19 835.16,-302.61 844.25,-308.05 845.66,-301.19"/>
<text text-anchor="middle" x="890.5" y="-306.3" font-family="Courier,monospace" font-size="14.00">statement</text>
</g>
<!-- 5&#45;&gt;6 -->
<g id="edge16" class="edge">
<title>5&#45;&gt;6</title>
<path fill="none" stroke="black" stroke-dasharray="5,2" d="M800,-282.94C859.89,-268.15 934.92,-249.62 996.34,-234.44"/>
<polygon fill="black" stroke="black" points="997.21,-237.84 1006.08,-232.04 995.53,-231.04 997.21,-237.84"/>
<text text-anchor="middle" x="970" y="-253.8" font-family="Courier,monospace" font-size="14.00">incremento</text>
</g>
<!-- 9 -->
<g id="node13" class="node">
<title>9</title>
<polygon fill="none" stroke="black" points="924,-232 643,-232 643,-178 924,-178 924,-232"/>
<text text-anchor="middle" x="783.5" y="-216.8" font-family="Courier,monospace" font-size="14.00">State 9</text>
<text text-anchor="start" x="651" y="-185.8" font-family="Courier,monospace" font-size="14.00"> &#160;2 start_2: statement start_2 .</text>
</g>
<!-- 5&#45;&gt;9 -->
<g id="edge14" class="edge">
<title>5&#45;&gt;9</title>
<path fill="none" stroke="black" stroke-dasharray="5,2" d="M717.19,-282.74C728.38,-269.79 742.02,-254 754.01,-240.12"/>
<polygon fill="black" stroke="black" points="756.96,-242.06 760.85,-232.21 751.67,-237.49 756.96,-242.06"/>
<text text-anchor="middle" x="773.5" y="-253.8" font-family="Courier,monospace" font-size="14.00">start_2</text>
</g>
<!-- 5R3 -->
<g id="node14" class="node">
<title>5R3</title>
<polygon fill="#b2df8a" stroke="black" points="594.5,-223 564.33,-205 594.5,-187 624.67,-205 594.5,-223"/>
<text text-anchor="middle" x="594.5" y="-201.3" font-family="Courier,monospace" font-size="14.00">R3</text>
</g>
<!-- 5&#45;&gt;5R3 -->
<g id="edge17" class="edge">
<title>5&#45;&gt;5R3</title>
<path fill="none" stroke="black" d="M669.01,-282.74C651.2,-264.41 627.89,-240.4 612.12,-224.15"/>
<polygon fill="black" stroke="black" points="614.52,-221.6 605.04,-216.86 609.5,-226.47 614.52,-221.6"/>
</g>
<!-- 10 -->
<g id="node15" class="node">
<title>10</title>
<polygon fill="none" stroke="black" points="1280.5,-127 942.5,-127 942.5,-73 1280.5,-73 1280.5,-127"/>
<text text-anchor="middle" x="1111.5" y="-111.8" font-family="Courier,monospace" font-size="14.00">State 10</text>
<text text-anchor="start" x="950.5" y="-80.8" font-family="Courier,monospace" font-size="14.00"> &#160;5 statement: incremento T_SEPARATOR .</text>
</g>
<!-- 6&#45;&gt;10 -->
<g id="edge18" class="edge">
<title>6&#45;&gt;10</title>
<path fill="none" stroke="black" d="M1111.5,-177.74C1111.5,-165.51 1111.5,-150.76 1111.5,-137.48"/>
<polygon fill="black" stroke="black" points="1115,-137.21 1111.5,-127.21 1108,-137.21 1115,-137.21"/>
<text text-anchor="middle" x="1157" y="-148.8" font-family="Courier,monospace" font-size="14.00">T_SEPARATOR</text>
</g>
<!-- 7R6 -->
<g id="node16" class="node">
<title>7R6</title>
<polygon fill="#b2df8a" stroke="black" points="148.5,-36 118.33,-18 148.5,0 178.67,-18 148.5,-36"/>
<text text-anchor="middle" x="148.5" y="-14.3" font-family="Courier,monospace" font-size="14.00">R6</text>
</g>
<!-- 7&#45;&gt;7R6 -->
<g id="edge19" class="edge">
<title>7&#45;&gt;7R6</title>
<path fill="none" stroke="black" d="M148.5,-72.81C148.5,-64.35 148.5,-54.95 148.5,-46.4"/>
<polygon fill="black" stroke="black" points="152,-46.17 148.5,-36.17 145,-46.17 152,-46.17"/>
</g>
<!-- 8R0 -->
<g id="node17" class="node">
<title>8R0</title>
<polygon fill="#a6cee3" stroke="black" points="1413.5,-118 1375.63,-100 1413.5,-82 1451.37,-100 1413.5,-118"/>
<text text-anchor="middle" x="1413.5" y="-96.3" font-family="Courier,monospace" font-size="14.00">Acc</text>
</g>
<!-- 8&#45;&gt;8R0 -->
<g id="edge20" class="edge">
<title>8&#45;&gt;8R0</title>
<path fill="none" stroke="black" d="M1413.5,-177.74C1413.5,-162.68 1413.5,-143.8 1413.5,-128.53"/>
<polygon fill="black" stroke="black" points="1417,-128.16 1413.5,-118.16 1410,-128.16 1417,-128.16"/>
</g>
<!-- 9R2 -->
<g id="node18" class="node">
<title>9R2</title>
<polygon fill="#b2df8a" stroke="black" points="783.5,-118 753.33,-100 783.5,-82 813.67,-100 783.5,-118"/>
<text text-anchor="middle" x="783.5" y="-96.3" font-family="Courier,monospace" font-size="14.00">R2</text>
</g>
<!-- 9&#45;&gt;9R2 -->
<g id="edge21" class="edge">
<title>9&#45;&gt;9R2</title>
<path fill="none" stroke="black" d="M783.5,-177.74C783.5,-162.68 783.5,-143.8 783.5,-128.53"/>
<polygon fill="black" stroke="black" points="787,-128.16 783.5,-118.16 780,-128.16 787,-128.16"/>
</g>
<!-- 10R5 -->
<g id="node19" class="node">
<title>10R5</title>
<polygon fill="#b2df8a" stroke="black" points="1111.5,-36 1081.33,-18 1111.5,0 1141.67,-18 1111.5,-36"/>
<text text-anchor="middle" x="1111.5" y="-14.3" font-family="Courier,monospace" font-size="14.00">R5</text>
</g>
<!-- 10&#45;&gt;10R5 -->
<g id="edge22" class="edge">
<title>10&#45;&gt;10R5</title>
<path fill="none" stroke="black" d="M1111.5,-72.81C1111.5,-64.35 1111.5,-54.95 1111.5,-46.4"/>
<polygon fill="black" stroke="black" points="1115,-46.17 1111.5,-36.17 1108,-46.17 1115,-46.17"/>
</g>
</g>
</svg>
